<mxfile host="app.diagrams.net" modified="2023-04-14T06:00:46.092Z" agent="Mozilla/5.0 (Windows NT 10.0; Win64; x64) AppleWebKit/537.36 (KHTML, like Gecko) Chrome/112.0.0.0 Safari/537.36 Edg/112.0.1722.39" version="21.1.7" etag="N2Q9NnK1knqT1eqefIu_" type="github">
  <diagram name="PÃ¡gina-1" id="6oc-uZo9s_Zqv2YG6RN-">
    <mxGraphModel>
      <root>
        <mxCell id="0" />
        <mxCell id="1" parent="0" />
      </root>
    </mxGraphModel>
  </diagram>
</mxfile>
